<svg xmlns="http://www.w3.org/2000/svg" width="1024" height="1024" viewBox="0 0 1024 1024">
<g>
<path d="M 0.00 0.00 L 1024.00 0.00 L 1024.00 1024.00 L 0.00 1024.00 ZM 404.66 692.75 C458.72,746.70 479.67,767.00 481.30,767.00 C482.92,767.00 504.49,746.00 560.62,689.75 C633.60,616.62 648.30,600.92 646.51,598.02 C646.09,597.34 653.62,597.00 669.32,597.00 C689.89,597.00 692.92,596.80 694.13,595.35 C695.24,594.01 695.60,584.03 696.00,543.60 L 696.50 493.50 L 746.41 493.24 C781.24,493.06 796.72,492.64 797.66,491.87 C799.56,490.29 799.65,381.54 797.75,380.31 C797.06,379.86 774.00,379.27 746.50,379.00 L 696.50 378.50 L 696.00 328.43 C695.55,283.30 695.33,278.19 693.82,276.68 C692.29,275.15 687.37,275.00 638.40,275.00 C589.80,275.00 584.48,275.16 582.83,276.65 C581.10,278.22 581.00,281.10 581.00,327.07 C581.00,353.89 580.73,376.55 580.39,377.42 C579.85,378.83 574.50,379.00 530.22,379.00 C485.51,379.00 480.48,379.16 478.83,380.65 C477.15,382.17 477.00,384.33 477.00,406.43 C477.00,426.65 477.25,430.92 478.56,432.78 C480.40,435.41 483.62,435.65 486.17,433.35 C487.83,431.84 488.00,429.77 488.00,410.89 L 488.00 390.09 L 538.46 389.79 C587.57,389.51 588.96,389.45 590.43,387.50 C591.73,385.78 591.94,378.54 591.97,335.75 L 592.00 286.00 L 637.30 286.00 C671.20,286.00 682.90,286.30 683.80,287.20 C684.70,288.10 685.00,300.68 685.00,337.64 L 685.00 386.89 L 687.22 388.44 C689.16,389.80 695.74,390.00 738.72,390.00 L 788.00 390.00 L 788.00 481.77 L 785.75 482.37 C784.51,482.70 762.21,482.98 736.18,482.99 C705.51,483.00 688.19,483.36 686.93,484.04 C685.06,485.04 685.00,486.66 685.00,534.98 C685.00,571.56 684.69,585.07 683.85,585.59 C683.21,585.99 656.55,586.38 624.60,586.48 C605.54,586.54 595.45,586.53 595.45,586.48 C595.45,586.45 600.06,586.39 609.64,586.32 C642.40,586.06 653.02,585.68 653.78,584.74 C655.45,582.69 658.82,570.15 660.56,559.50 C663.83,539.55 659.99,514.82 650.80,496.60 C635.85,466.97 607.54,444.92 576.00,438.34 C563.25,435.68 541.29,435.92 529.53,438.84 C519.89,441.23 506.58,446.58 498.50,451.29 C494.14,453.84 485.45,460.28 484.00,462.04 C482.57,463.78 480.02,463.68 478.35,461.83 C475.62,458.82 461.31,449.55 455.00,446.70 C437.38,438.76 426.99,436.53 408.00,436.60 C391.27,436.66 381.81,438.54 366.68,444.79 C353.81,450.11 344.04,456.82 332.96,467.93 C319.75,481.19 312.77,492.03 307.13,508.06 C302.11,522.32 300.65,532.49 301.32,548.50 C301.64,556.20 302.42,564.30 303.07,566.50 C303.71,568.70 305.11,573.51 306.18,577.18 C307.25,580.85 308.69,584.33 309.39,584.91 C310.14,585.53 318.51,586.10 330.08,586.31 C332.90,586.36 334.24,586.39 334.24,586.42 C334.24,586.48 323.90,586.45 306.50,586.30 C259.58,585.92 258.79,586.00 258.18,591.33 C257.53,596.97 257.71,597.00 288.29,597.00 C303.71,597.00 316.06,597.27 315.72,597.61 C314.90,598.43 319.23,605.15 325.30,612.49 C328.03,615.80 363.75,651.91 404.66,692.75 ZM 965.88 985.75 C966.04,987.39 966.30,987.34 968.85,985.13 C971.02,983.25 971.85,981.36 970.00,982.50 C968.21,983.61 968.95,982.36 971.23,980.40 C973.05,978.85 973.21,978.83 972.11,980.25 C971.36,981.21 971.19,982.00 971.72,982.00 C972.25,982.00 973.20,980.85 973.85,979.44 C974.52,977.95 974.59,977.14 974.01,977.50 C972.25,978.58 972.92,977.38 975.17,975.40 C976.37,974.36 977.02,974.05 976.62,974.73 C976.23,975.41 978.39,974.51 981.43,972.73 C984.47,970.95 986.97,968.82 986.98,967.98 C987.00,966.70 983.59,964.54 976.09,961.05 C975.31,960.69 974.56,959.58 974.41,958.59 C974.26,957.60 973.21,955.79 972.06,954.57 C970.92,953.35 970.32,951.98 970.74,951.52 C971.16,951.06 970.94,951.00 970.25,951.40 C969.56,951.79 969.00,951.61 969.00,950.99 C969.00,948.77 965.87,950.56 963.73,954.00 C961.83,957.06 961.80,957.31 963.44,956.00 C965.19,954.61 965.25,954.64 964.26,956.51 C963.67,957.62 962.17,959.42 960.92,960.51 C959.68,961.61 959.03,961.86 959.49,961.08 C960.01,960.20 959.32,960.39 957.69,961.58 C956.24,962.64 955.23,963.99 955.44,964.59 C955.67,965.26 954.89,965.51 953.42,965.23 C951.58,964.88 950.81,965.33 950.14,967.14 C949.38,969.21 949.75,969.79 953.20,971.85 C955.37,973.14 957.41,973.93 957.74,973.60 C958.58,972.76 962.00,976.02 962.00,977.65 C962.00,978.39 962.90,979.90 964.00,981.00 C965.10,982.10 965.95,983.34 965.88,983.75 C965.82,984.16 965.82,985.06 965.88,985.75 ZM 957.55 969.09 C958.24,970.21 957.90,970.22 956.20,969.15 C955.17,968.49 955.22,968.06 956.48,967.02 C957.34,966.30 958.37,966.07 958.77,966.49 C959.17,966.92 958.93,967.48 958.24,967.72 C957.55,967.97 957.24,968.58 957.55,969.09 Z" fill="rgb(29,185,154)"/>
<path d="M 478.67 648.25 C479.41,651.01 480.69,650.30 481.39,646.75 C481.74,644.96 483.80,637.88 485.96,631.00 C488.13,624.12 491.98,611.75 494.53,603.50 C504.24,572.07 504.35,571.77 507.58,568.34 C510.27,565.49 511.42,565.00 515.33,565.00 C521.77,565.00 525.36,568.49 531.98,581.18 C537.83,592.39 543.39,601.51 544.98,602.48 C545.52,602.82 548.69,600.20 552.01,596.65 C554.91,593.55 556.82,591.34 559.15,589.78 C564.84,585.99 573.06,585.99 604.44,586.00 C606.18,586.00 607.99,586.00 609.87,586.00 C631.66,586.00 643.44,585.88 649.18,585.52 C643.35,585.92 631.36,586.15 609.64,586.32 C600.06,586.39 595.45,586.45 595.45,586.48 C595.45,586.53 605.54,586.54 624.60,586.48 C656.55,586.38 683.21,585.99 683.85,585.59 C684.69,585.07 685.00,571.56 685.00,534.98 C685.00,486.66 685.06,485.04 686.93,484.04 C688.19,483.36 705.51,483.00 736.18,482.99 C762.21,482.98 784.51,482.70 785.75,482.37 L 788.00 481.77 L 788.00 390.00 L 738.72 390.00 C695.74,390.00 689.16,389.80 687.22,388.44 L 685.00 386.89 L 685.00 337.64 C685.00,300.68 684.70,288.10 683.80,287.20 C682.90,286.30 671.20,286.00 637.30,286.00 L 592.00 286.00 L 591.97 335.75 C591.94,378.54 591.73,385.78 590.43,387.50 C588.96,389.45 587.57,389.51 538.46,389.79 L 488.00 390.09 L 488.00 410.89 C488.00,429.77 487.83,431.84 486.17,433.35 C483.62,435.65 480.40,435.41 478.56,432.78 C477.25,430.92 477.00,426.65 477.00,406.43 C477.00,384.33 477.15,382.17 478.83,380.65 C480.48,379.16 485.51,379.00 530.22,379.00 C574.50,379.00 579.85,378.83 580.39,377.42 C580.73,376.55 581.00,353.89 581.00,327.07 C581.00,281.10 581.10,278.22 582.83,276.65 C584.48,275.16 589.80,275.00 638.40,275.00 C687.37,275.00 692.29,275.15 693.82,276.68 C695.33,278.19 695.55,283.30 696.00,328.43 L 696.50 378.50 L 746.50 379.00 C774.00,379.27 797.06,379.86 797.75,380.31 C799.65,381.54 799.56,490.29 797.66,491.87 C796.72,492.64 781.24,493.06 746.41,493.24 L 696.50 493.50 L 696.00 543.60 C695.60,584.03 695.24,594.01 694.13,595.35 C692.92,596.80 689.89,597.00 669.32,597.00 C653.62,597.00 646.09,597.34 646.51,598.02 C645.62,596.58 571.35,596.63 567.20,598.08 C565.50,598.67 562.01,601.61 559.45,604.61 C553.28,611.84 548.12,614.52 543.41,612.97 C536.48,610.68 533.15,606.38 521.58,584.75 C516.72,575.67 514.50,574.05 513.38,578.75 C513.02,580.26 511.46,585.55 509.92,590.50 C508.37,595.45 504.57,607.60 501.48,617.50 C498.38,627.40 493.91,641.74 491.53,649.37 C485.87,667.56 483.65,670.38 476.41,668.57 C471.92,667.44 471.32,665.68 465.03,635.00 C463.95,629.78 461.69,618.97 460.00,611.00 C458.30,603.03 455.14,587.39 452.98,576.26 C450.81,565.13 448.60,554.11 448.06,551.76 C447.52,549.42 446.13,543.11 444.96,537.75 C443.79,532.39 442.44,528.00 441.96,528.00 C441.47,528.00 440.59,529.91 439.99,532.25 C439.39,534.59 438.07,539.20 437.05,542.50 C433.76,553.19 430.22,565.08 423.94,586.50 C415.75,614.46 414.53,616.73 407.29,617.68 C400.13,618.61 397.73,615.88 386.50,593.99 C374.90,571.38 374.51,571.07 369.22,580.50 C360.33,596.32 358.90,597.00 334.71,597.00 C324.60,597.00 316.06,597.27 315.72,597.61 C316.06,597.27 303.71,597.00 288.29,597.00 C257.71,597.00 257.53,596.97 258.18,591.33 C258.79,586.00 259.58,585.92 306.50,586.30 C323.90,586.45 334.24,586.48 334.24,586.42 C334.24,586.39 332.90,586.36 330.08,586.31 C324.72,586.21 320.05,586.04 316.50,585.82 C319.85,585.95 324.53,586.00 330.94,586.00 L 351.63 586.00 L 354.26 583.25 C355.71,581.74 358.61,577.37 360.70,573.54 C364.97,565.72 369.48,562.00 374.69,562.00 C380.75,562.00 385.15,567.43 395.39,587.54 C400.40,597.38 405.04,605.58 405.69,605.78 C406.41,605.99 407.71,603.26 409.00,598.81 C410.16,594.79 412.39,587.22 413.95,582.00 C415.51,576.78 418.92,565.30 421.51,556.50 C428.50,532.84 433.70,515.85 434.85,512.85 C436.88,507.60 444.03,505.17 447.44,508.58 C450.71,511.85 450.62,511.51 457.56,545.50 C459.47,554.85 462.13,567.67 463.47,574.00 C467.80,594.44 474.73,628.26 476.49,637.50 C477.43,642.45 478.41,647.29 478.67,648.25 ZM 311.87 496.50 C316.81,486.25 323.18,477.75 332.96,467.93 C323.79,477.14 316.94,486.32 311.87,496.50 ZM 301.17 542.22 C301.13,532.24 302.18,524.35 304.77,515.39 C303.88,518.63 303.12,521.99 302.45,525.50 C301.62,529.87 301.20,535.91 301.17,542.22 ZM 303.38 567.55 C303.26,567.16 303.16,566.80 303.07,566.50 C302.81,565.61 302.52,563.74 302.25,561.32 C302.56,563.65 302.94,565.77 303.38,567.55 ZM 309.71 585.06 C309.56,585.01 309.45,584.96 309.39,584.91 C309.37,584.89 309.35,584.88 309.34,584.86 C309.43,584.93 309.56,584.99 309.71,585.06 Z" fill="rgb(41,68,80)"/>
<path d="M 965.88 985.75 C965.82,985.06 965.82,984.16 965.88,983.75 C965.95,983.34 965.10,982.10 964.00,981.00 C962.90,979.90 962.00,978.39 962.00,977.65 C962.00,976.02 958.58,972.76 957.74,973.60 C957.41,973.93 955.37,973.14 953.20,971.85 C949.75,969.79 949.38,969.21 950.14,967.14 C950.81,965.33 951.58,964.88 953.42,965.23 C954.89,965.51 955.67,965.26 955.44,964.59 C955.23,963.99 956.24,962.64 957.69,961.58 C959.32,960.39 960.01,960.20 959.49,961.08 C959.03,961.86 959.68,961.61 960.92,960.51 C962.17,959.42 963.67,957.62 964.26,956.51 C965.25,954.64 965.19,954.61 963.44,956.00 C961.80,957.31 961.83,957.06 963.73,954.00 C965.87,950.56 969.00,948.77 969.00,950.99 C969.00,951.61 969.56,951.79 970.25,951.40 C970.94,951.00 971.16,951.06 970.74,951.52 C970.32,951.98 970.92,953.35 972.06,954.57 C973.21,955.79 974.26,957.60 974.41,958.59 C974.56,959.58 975.31,960.69 976.09,961.05 C983.59,964.54 987.00,966.70 986.98,967.98 C986.97,968.82 984.47,970.95 981.43,972.73 C978.39,974.51 976.23,975.41 976.62,974.73 C977.02,974.05 976.37,974.36 975.17,975.40 C972.92,977.38 972.25,978.58 974.01,977.50 C974.59,977.14 974.52,977.95 973.85,979.44 C973.20,980.85 972.25,982.00 971.72,982.00 C971.19,982.00 971.36,981.21 972.11,980.25 C973.21,978.83 973.05,978.85 971.23,980.40 C968.95,982.36 968.21,983.61 970.00,982.50 C971.85,981.36 971.02,983.25 968.85,985.13 C966.30,987.34 966.04,987.39 965.88,985.75 ZM 957.55 969.09 C957.24,968.58 957.55,967.97 958.24,967.72 C958.93,967.48 959.17,966.92 958.77,966.49 C958.37,966.07 957.34,966.30 956.48,967.02 C955.22,968.06 955.17,968.49 956.20,969.15 C957.90,970.22 958.24,970.21 957.55,969.09 ZM 404.66 692.75 C363.75,651.91 328.03,615.80 325.30,612.49 C319.23,605.15 314.90,598.43 315.72,597.61 C316.06,597.27 324.60,597.00 334.71,597.00 C358.90,597.00 360.33,596.32 369.22,580.50 C374.51,571.07 374.90,571.38 386.50,593.99 C397.73,615.88 400.13,618.61 407.29,617.68 C414.53,616.73 415.75,614.46 423.94,586.50 C430.22,565.08 433.76,553.19 437.05,542.50 C438.07,539.20 439.39,534.59 439.99,532.25 C440.59,529.91 441.47,528.00 441.96,528.00 C442.44,528.00 443.79,532.39 444.96,537.75 C446.13,543.11 447.52,549.42 448.06,551.76 C448.60,554.11 450.81,565.13 452.98,576.26 C455.14,587.39 458.30,603.03 460.00,611.00 C461.69,618.97 463.95,629.78 465.03,635.00 C471.32,665.68 471.92,667.44 476.41,668.57 C483.65,670.38 485.87,667.56 491.53,649.37 C493.91,641.74 498.38,627.40 501.48,617.50 C504.57,607.60 508.37,595.45 509.92,590.50 C511.46,585.55 513.02,580.26 513.38,578.75 C514.50,574.05 516.72,575.67 521.58,584.75 C533.15,606.38 536.48,610.68 543.41,612.97 C548.12,614.52 553.28,611.84 559.45,604.61 C562.01,601.61 565.50,598.67 567.20,598.08 C571.35,596.63 645.62,596.58 646.51,598.02 C648.30,600.92 633.60,616.62 560.62,689.75 C504.49,746.00 482.92,767.00 481.30,767.00 C479.67,767.00 458.72,746.70 404.66,692.75 ZM 478.67 648.25 C478.41,647.29 477.43,642.45 476.49,637.50 C474.73,628.26 467.80,594.44 463.47,574.00 C462.13,567.67 459.47,554.85 457.56,545.50 C450.62,511.51 450.71,511.85 447.44,508.58 C444.03,505.17 436.88,507.60 434.85,512.85 C433.70,515.85 428.50,532.84 421.51,556.50 C418.92,565.30 415.51,576.78 413.95,582.00 C412.39,587.22 410.16,594.79 409.00,598.81 C407.71,603.26 406.41,605.99 405.69,605.78 C405.04,605.58 400.40,597.38 395.39,587.54 C385.15,567.43 380.75,562.00 374.69,562.00 C369.48,562.00 364.97,565.72 360.70,573.54 C358.61,577.37 355.71,581.74 354.26,583.25 L 351.63 586.00 L 330.94 586.00 C315.39,586.00 309.98,585.68 309.19,584.73 C307.93,583.22 305.81,576.99 303.49,568.00 C300.89,557.94 300.36,536.48 302.45,525.50 C306.91,502.05 315.93,485.02 332.96,467.93 C344.04,456.82 353.81,450.11 366.68,444.79 C381.81,438.54 391.27,436.66 408.00,436.60 C426.99,436.53 437.38,438.76 455.00,446.70 C461.31,449.55 475.62,458.82 478.35,461.83 C480.02,463.68 482.57,463.78 484.00,462.04 C485.45,460.28 494.14,453.84 498.50,451.29 C506.58,446.58 519.89,441.23 529.53,438.84 C541.29,435.92 563.25,435.68 576.00,438.34 C607.54,444.92 635.85,466.97 650.80,496.60 C659.99,514.82 663.83,539.55 660.56,559.50 C658.82,570.17 655.45,582.69 653.77,584.75 C652.99,585.71 642.97,586.00 609.87,586.00 C560.02,586.00 562.38,585.57 552.01,596.65 C548.69,600.20 545.52,602.82 544.98,602.48 C543.39,601.51 537.83,592.39 531.98,581.18 C525.36,568.49 521.77,565.00 515.33,565.00 C511.42,565.00 510.27,565.49 507.58,568.34 C504.35,571.77 504.24,572.07 494.53,603.50 C491.98,611.75 488.13,624.12 485.96,631.00 C483.80,637.88 481.74,644.96 481.39,646.75 C480.69,650.30 479.41,651.01 478.67,648.25 Z" fill="rgb(248,253,252)"/>
</g>
</svg>